<?xml version="1.0" encoding="utf-8"?>
<!-- Generator: Adobe Illustrator 16.0.0, SVG Export Plug-In . SVG Version: 6.00 Build 0)  -->
<!DOCTYPE svg PUBLIC "-//W3C//DTD SVG 1.1//EN" "http://www.w3.org/Graphics/SVG/1.1/DTD/svg11.dtd">
<svg version="1.1" id="Layer_1" xmlns="http://www.w3.org/2000/svg" xmlns:xlink="http://www.w3.org/1999/xlink" x="0px" y="0px"
	 width="1000px" height="1000px" viewBox="0 0 200 200" enable-background="new 0 0 200 200" xml:space="preserve">
<g>
	<path fill="#00FF00" d="M132.18,74.081c-0.145-0.118-0.312-0.205-0.49-0.268c-0.085-0.031-0.168-0.067-0.262-0.079
		c-0.008-0.001-0.891-0.13-1.751-0.669c-0.194-0.122-0.413-0.27-0.655-0.434c-0.072-0.049-0.158-0.105-0.236-0.157
		c-0.148-0.099-0.293-0.197-0.455-0.302c-0.771-0.504-1.707-1.055-2.771-1.472c-0.183-0.072-0.378-0.127-0.567-0.19
		c-0.496-0.165-1.006-0.306-1.55-0.379c-0.612-0.083-1.358-0.139-2.135-0.178c-0.24-0.012-0.483-0.023-0.727-0.032
		c-1.842-0.067-3.67-0.048-4.202-0.04c-0.086,0.001-0.148,0.002-0.161,0.003c-0.093-0.002-0.31-0.006-0.591-0.008
		c-0.901-0.008-2.625,0.002-4.382,0.139c-0.277,0.021-0.556,0.045-0.831,0.073c-1.139,0.119-2.229,0.299-3.034,0.574
		c-0.278,0.095-0.58,0.18-0.896,0.27c-0.53,0.15-1.107,0.321-1.706,0.551c-0.362,0.139-0.73,0.294-1.105,0.495
		c-0.374,0.198-0.643,0.509-1.269,1.255c-0.278,0.333-0.784,0.937-1.007,1.128c-0.105,0.045-0.227,0.078-0.359,0.104
		c-0.339,0.067-0.767,0.084-1.318,0.095l-0.228,0.007l-0.22-0.005c-0.731-0.014-1.287-0.037-1.667-0.199
		c-0.085-0.073-0.21-0.207-0.348-0.36c-0.114-0.127-0.236-0.269-0.353-0.405c-0.113-0.133-0.221-0.261-0.307-0.363
		c-0.625-0.746-0.894-1.057-1.265-1.254c-0.24-0.128-0.478-0.239-0.713-0.34c-0.189-0.081-0.368-0.138-0.552-0.206
		c-0.541-0.199-1.067-0.364-1.549-0.501c-0.316-0.09-0.617-0.174-0.896-0.27c-0.242-0.083-0.518-0.154-0.806-0.22
		c-0.202-0.046-0.409-0.091-0.627-0.131c-1.191-0.215-2.591-0.329-3.857-0.385c-0.251-0.011-0.494-0.02-0.731-0.027
		c-1.405-0.042-2.52-0.023-2.755-0.016c-0.066-0.001-0.639-0.012-1.459-0.012c-0.235,0-0.489,0.001-0.76,0.003
		c-1.357,0.01-3.079,0.053-4.425,0.184c-0.225,0.021-0.442,0.045-0.643,0.072c-2.345,0.315-4.292,1.632-5.58,2.502
		c-0.241,0.163-0.459,0.311-0.653,0.432c-0.865,0.541-1.755,0.67-1.754,0.67c-0.75,0.094-1.313,0.732-1.313,1.488v2.215
		c0,0.526,0.276,1.015,0.728,1.286c0.11,0.066,0.224,0.139,0.336,0.213c0.263,0.173,0.514,0.355,0.667,0.484
		c0.077,0.433,0.207,1.296,0.315,2.018c0.033,0.22,0.066,0.44,0.1,0.659c0.034,0.222,0.067,0.441,0.1,0.657
		c0.167,1.086,0.329,2.063,0.457,2.575c0.069,0.275,0.181,0.582,0.313,0.897c0.072,0.173,0.142,0.345,0.232,0.525
		c0.398,0.792,0.99,1.647,1.778,2.464c0.122,0.126,0.253,0.25,0.385,0.373c0.606,0.574,1.309,1.119,2.137,1.592
		c0.112,0.064,0.228,0.114,0.341,0.172c0.168,0.085,0.335,0.174,0.504,0.254c1.047,0.495,2.12,0.833,3.177,1.065
		c0.215,0.048,0.426,0.079,0.64,0.118c1.361,0.252,2.663,0.364,3.807,0.436c0.15,0.009,0.311,0.021,0.455,0.029
		c0.132,0.008,0.247,0.012,0.369,0.017c0.329,0.015,0.636,0.025,0.908,0.025c1.382,0,2.133-0.191,3.445-0.525
		c0.115-0.029,0.245-0.062,0.371-0.094c0.247-0.062,0.509-0.128,0.81-0.2c0.07-0.018,0.137-0.041,0.207-0.059
		c4.365-1.134,7.674-4.546,9.156-9.157l2.585-2.585c0.23,0.94,0.553,2.093,0.953,3.29c0.063,0.19,0.122,0.378,0.189,0.568
		c0.37,1.045,0.797,2.08,1.27,2.972c0.09,0.168,0.183,0.325,0.275,0.483c0.427,0.726,0.885,1.331,1.372,1.705
		c0.239,0.184,0.456,0.347,0.665,0.5c0.15,0.111,0.297,0.219,0.439,0.319c0.944,0.67,1.709,1.088,2.791,1.449
		c0.18,0.061,0.383,0.119,0.582,0.178c0.376,0.109,0.778,0.22,1.253,0.334c0.687,0.165,1.44,0.309,2.22,0.435
		c0.227,0.036,0.443,0.079,0.676,0.11c1.258,0.173,2.602,0.27,3.982,0.232c0.296-0.008,0.594-0.025,0.894-0.045
		c1.784-0.125,3.606-0.491,5.363-1.213c0.571-0.234,1.138-0.501,1.692-0.816c2.807-1.603,4.307-4.002,4.785-5.661
		c0.018-0.062,0.045-0.131,0.06-0.191c0.179-0.715,0.422-2.33,0.656-3.891c0.05-0.334,0.104-0.698,0.156-1.033
		c0.054-0.356,0.104-0.68,0.142-0.899c0.021-0.13,0.038-0.227,0.048-0.268c0.03-0.092,0.052-0.188,0.064-0.284
		c0.001-0.008,0.002-0.016,0.003-0.023c0.174,0.016,0.346-0.01,0.514-0.055l1.065-1.065c0.031-0.121,0.053-0.246,0.053-0.374v-2.215
		C132.743,74.759,132.516,74.358,132.18,74.081z M71.271,80.994c-0.05-0.332-0.093-0.62-0.132-0.872l7.193-7.193
		c1.77-0.069,3.65-0.054,4.289-0.046L71.711,83.792C71.576,83.019,71.411,81.931,71.271,80.994z M75.293,88.578
		c-0.592-0.337-1.089-0.713-1.51-1.1l14.41-14.41c0.975,0.095,1.865,0.233,2.459,0.436c0.322,0.11,0.669,0.209,1.034,0.313
		L76.403,89.1C76.024,88.947,75.65,88.781,75.293,88.578z M95.84,78.51c-0.023,0.419-0.073,0.852-0.137,1.289L85.312,90.191
		c-0.666,0.119-1.264,0.139-2.406,0.071c-0.544-0.032-1.15-0.076-1.775-0.132l14.004-14.005c0.38,0.413,0.684,0.686,0.996,0.856
		C95.926,77.512,95.876,78.094,95.84,78.51z M103.922,81.581c-0.408-1.344-0.701-2.534-0.759-3.055c0-0.124-0.004-0.27-0.011-0.418
		l4.35-4.35c0.294-0.084,0.584-0.167,0.849-0.256c0.938-0.32,2.604-0.483,4.212-0.561L103.922,81.581z M106.469,87.32
		c-0.303-0.232-0.645-0.803-0.992-1.536l12.907-12.908c1.278,0.01,2.871,0.047,4.08,0.162l-15.012,15.012
		C107.16,87.844,106.851,87.614,106.469,87.32z M127.132,84.603c-0.219,0.875-1.187,2.696-3.421,3.973
		c-0.602,0.343-1.227,0.613-1.863,0.837l5.406-5.406C127.208,84.256,127.167,84.463,127.132,84.603z M128.12,77.382l-12.813,12.814
		c-1.414-0.089-2.689-0.296-3.721-0.522l15.033-15.033c0.254,0.164,0.5,0.326,0.723,0.476c0.274,0.186,0.523,0.354,0.743,0.491
		c0.012,0.007,0.023,0.015,0.035,0.022V77.382z"/>
</g>
</svg>
