<?xml version="1.0" encoding="utf-8"?>
<!-- Generator: Adobe Illustrator 16.0.0, SVG Export Plug-In . SVG Version: 6.00 Build 0)  -->
<!DOCTYPE svg PUBLIC "-//W3C//DTD SVG 1.1//EN" "http://www.w3.org/Graphics/SVG/1.1/DTD/svg11.dtd">
<svg version="1.1" id="Layer_1" xmlns="http://www.w3.org/2000/svg" xmlns:xlink="http://www.w3.org/1999/xlink" x="0px" y="0px"
	 width="200px" height="200px" viewBox="0 0 200 200" enable-background="new 0 0 200 200" xml:space="preserve">
<path fill="none" stroke="#5E686D" stroke-width="2" stroke-linecap="round" stroke-linejoin="round" stroke-miterlimit="10" d="
	M66.491,67.528c-0.458,3.682-0.632,7.587-0.632,11.635c0,22.333,10.974,39.179,10.974,39.179c7.666,10.334-3.333,21.5-9.336,24.484
	c-6.003,2.979-32.329,5.684-36.329,9.35S25.5,173.51,25.5,173.51"/>
<path fill="none" stroke="#5E686D" stroke-width="2" stroke-linecap="round" stroke-linejoin="round" stroke-miterlimit="10" d="
	M174.5,173.51c0,0-1.668-17.668-5.668-21.334s-30.326-6.367-36.329-9.35c-6.003-2.984-17.002-14.15-9.336-24.484
	c0,0,10.974-16.846,10.974-39.179c0-4.253-0.189-8.349-0.703-12.193"/>
<path fill="none" stroke="#5E686D" stroke-width="2" stroke-linejoin="round" stroke-miterlimit="10" d="M99.52,77.677
	c-0.628,0.248-1.45-1.766-1.682,0.915c-0.311,5.712-3.386,11.062-9.057,12.43c-2.6,0.625-2.953,0.885-5.463,0.738
	c-2.511-0.147-5.611-0.362-8.268-1.879c-2.658-1.516-3.839-3.73-4.134-4.912c-0.296-1.181-0.886-5.758-1.034-6.201
	c-0.147-0.442-1.624-1.328-1.624-1.328v-2.215c0,0,1.181-0.148,2.362-0.886c1.181-0.739,3.217-2.394,5.638-2.72
	c2.386-0.321,7.059-0.233,7.059-0.233s5.88-0.135,8.32,0.698c0.998,0.341,2.26,0.566,3.491,1.221
	c0.306,0.163,1.694,2.097,2.243,2.371c0.677,0.338,1.443,0.369,2.373,0.386C99.96,76.066,100,76.068,100,76.068
	s0.04-0.002,0.259-0.008c0.933-0.018,1.692-0.047,2.37-0.386c0.551-0.273,1.938-2.208,2.245-2.371
	c1.229-0.656,2.494-0.88,3.491-1.221c2.438-0.833,8.318-0.698,8.318-0.698s4.674-0.088,7.059,0.233
	c2.423,0.326,4.458,1.981,5.64,2.72c1.179,0.739,2.361,0.886,2.361,0.886v2.215c0,0-1.325-1.012-1.623,1.328
	c-0.147,0.444-0.738,5.02-1.033,6.201c-0.296,1.182-1.479,3.396-4.134,4.912c-4.121,2.348-9.289,2.209-13.732,1.141
	c-2.589-0.624-3.248-1.033-5.166-2.51c-1.921-1.476-3.841-9.005-3.892-9.92c0.006-2.737-1.054-0.667-1.682-0.915L99.52,77.677z
	 M69.882,78.768v-4.429 M130.12,78.766v-4.429"/>
<path fill="none" stroke="#5E686D" stroke-width="2" stroke-linejoin="round" stroke-miterlimit="10" d="M66.492,67.528
	l10.591-10.352l-4-1l9.667-5.833l0.58-5.795c0,0,4.252,6.628,7.252,2.295s5.835,1,5.835,1l14.666-3l9.001,3.333l2.666,10.5
	l4.166,5.333l2.251-5.501l4.634,11.85l0.865-12.184c0,0,5.834-8.667,2.501-11.333s-2.833,1-2.833,1l-4.334-9l-6.5-5.167
	l-4.666,1.167L108,30.675c0,0,2.5-4.5-1-4.167s-12.5,1.333-12.5,1.333l-10.667,6.167l-6.167-0.167l0.833-4.667l-6.5,10.5l-4.5,11
	L66.492,67.528z"/>
</svg>
